<svg width="24" height="24" viewBox="0 0 24 24" fill="none" xmlns="http://www.w3.org/2000/svg">
<path d="M11.936 17.9135C11.936 17.2737 12.453 16.761 13.098 16.761C13.742 16.761 14.258 17.2737 14.258 17.9135C14.2585 18.0651 14.2289 18.2152 14.1708 18.3554C14.1127 18.4955 14.0273 18.6228 13.9195 18.73C13.8117 18.8372 13.6836 18.9222 13.5426 18.98C13.4016 19.0379 13.2505 19.0674 13.098 19.0671C12.9454 19.0677 12.7942 19.0384 12.653 18.9807C12.5119 18.923 12.3836 18.8382 12.2756 18.7311C12.1676 18.6239 12.082 18.4966 12.0237 18.3565C11.9654 18.2164 11.9356 18.0652 11.936 17.9135ZM16.66 17.9145C16.66 17.2737 17.177 16.76 17.821 16.76C18.465 16.76 18.982 17.2737 18.982 17.9135C18.982 18.5534 18.465 19.0671 17.822 19.0671C17.6694 19.0677 17.5182 19.0384 17.377 18.9807C17.2359 18.923 17.1076 18.8382 16.9996 18.7311C16.8916 18.6239 16.806 18.4966 16.7477 18.3565C16.6894 18.2164 16.6596 18.0662 16.66 17.9145ZM5.71 17.9145C5.71 17.2737 6.227 16.76 6.871 16.76C7.515 16.76 8.031 17.2737 8.031 17.9135C8.031 18.5534 7.515 19.0671 6.871 19.0671C6.71847 19.0676 6.56734 19.0381 6.42631 18.9804C6.28528 18.9227 6.15713 18.8378 6.04923 18.7307C5.94133 18.6236 5.85581 18.4964 5.79759 18.3563C5.73937 18.2162 5.7096 18.0661 5.71 17.9145ZM0.986 17.9145C0.986 17.2737 1.503 16.76 2.147 16.76C2.791 16.76 3.308 17.2737 3.308 17.9135C3.30853 18.0652 3.27886 18.2154 3.2207 18.3556C3.16254 18.4958 3.07704 18.6232 2.96913 18.7304C2.86122 18.8376 2.73302 18.9225 2.59192 18.9803C2.45082 19.0381 2.29961 19.0676 2.147 19.0671C1.99456 19.0674 1.84354 19.0379 1.70262 18.9801C1.5617 18.9223 1.43367 18.8375 1.32587 18.7304C1.21808 18.6233 1.13265 18.4961 1.07449 18.3561C1.01634 18.216 0.985604 18.066 0.986 17.9145ZM10.537 15.8758H9.527V19.9126H10.537V15.8758ZM3.3 19.9126H4.31V15.8758H3.3V16.1997C2.94794 15.9563 2.52893 15.8265 2.1 15.8281C0.938 15.8281 0 16.76 0 17.9145C0 19.075 0.938 20 2.1 20C2.545 20 2.958 19.8659 3.3 19.6284V19.9126ZM18.974 19.9126H19.984V15.8758H18.974V16.1997C18.6219 15.9563 18.2029 15.8265 17.774 15.8281C16.612 15.8281 15.674 16.76 15.674 17.9145C15.6731 18.1887 15.7268 18.4604 15.832 18.7139C15.9372 18.9674 16.0919 19.1977 16.2871 19.3916C16.4823 19.5854 16.7142 19.739 16.9693 19.8434C17.2245 19.9478 17.498 20.001 17.774 20C18.219 20 18.632 19.8659 18.974 19.6284V19.9126ZM20.358 18.6011C20.39 19.4158 21.09 19.992 22.258 19.992C23.213 19.992 24 19.5807 24 18.6726C24 18.0407 23.642 17.6691 22.815 17.5102L22.171 17.385C21.757 17.3055 21.471 17.226 21.471 16.9816C21.471 16.7134 21.749 16.5941 22.099 16.5941C22.609 16.5941 22.815 16.8475 22.831 17.1475H23.849C23.793 16.3577 23.157 15.8281 22.131 15.8281C21.074 15.8281 20.445 16.4044 20.445 17.1555C20.445 18.0715 21.193 18.2215 21.837 18.3408L22.37 18.4352C22.752 18.5067 22.919 18.617 22.919 18.8385C22.919 19.0362 22.728 19.233 22.274 19.233C21.614 19.233 21.4 18.8932 21.392 18.6011H20.358ZM8.024 14.5007V16.1997C7.67194 15.9563 7.25293 15.8265 6.824 15.8281C5.662 15.8281 4.724 16.76 4.724 17.9145C4.724 19.075 5.662 20 6.824 20C7.268 20 7.682 19.8659 8.024 19.6284V19.9126H9.034V14.5007H8.024ZM14.25 14.5007V16.1997C13.8979 15.9563 13.4789 15.8265 13.05 15.8281C11.889 15.8281 10.95 16.76 10.95 17.9145C10.9491 18.1887 11.0028 18.4604 11.108 18.7139C11.2132 18.9674 11.3679 19.1977 11.5631 19.3916C11.7583 19.5854 11.9902 19.739 12.2453 19.8434C12.5005 19.9478 12.774 20.001 13.05 20C13.495 20 13.908 19.8659 14.25 19.6284V19.9126H15.26V14.5007H14.25ZM2.624 13.3085L3.308 14.5007H8.024L6.155 11.2926L2.625 13.3075L2.624 13.3085ZM10.537 15.5042V14.5007H14.25L10.29 7.69001L6.751 9.70491L9.527 14.5007V15.5042H10.537ZM15.754 14.5007H20.477L14.37 4L10.839 6.02285L15.754 14.5007Z" fill="#0A0A0A"/>
</svg>
