<svg width="24" height="24" viewBox="0 0 24 24" fill="none" xmlns="http://www.w3.org/2000/svg">
<path d="M13.55 1.52254V1.4424C13.55 1.06845 13.663 0.734023 13.888 0.4402C14.113 0.146377 14.4 0 14.75 0C15.1 0 15.413 0.119666 15.688 0.360067C15.963 0.600467 16.113 0.921002 16.138 1.32167C16.163 1.72234 16.05 2.05676 15.8 2.32387C15.55 2.59099 15.25 2.72454 14.9 2.72454L14.675 2.80467L14.75 2.92434L14.675 3.36561L14.525 4.64775C14.575 4.70117 14.6 4.75459 14.6 4.80801L14.45 5.60935C14.4 5.71619 14.35 5.79633 14.3 5.84975L14.225 6.17028C14.0941 6.73685 13.944 7.29815 13.775 7.85309V8.01336C13.725 8.28047 13.688 8.49416 13.663 8.65442C13.638 8.81469 13.55 9.0818 13.4 9.45576C13.3 9.66945 13.3 10.0167 13.4 10.4975L13.475 10.5776C13.475 10.7379 13.538 10.9249 13.663 11.1386C13.788 11.3523 13.85 11.5392 13.85 11.6995C13.9 12.7679 13.825 13.6761 13.625 14.424L13.775 14.9048C14.375 15.2254 14.55 15.5726 14.3 15.9466L14.675 16.1068C15.275 16.4274 15.7 16.7073 15.95 16.9477C16.2 17.1881 16.45 17.4424 16.7 17.7095C16.9 17.7629 17.05 17.8431 17.15 17.9499L17.375 18.0301C18.425 18.778 19.475 19.6861 20.525 20.7546L20.825 20.995V21.0751L20.75 21.2354L20.975 21.3957H21.05C21.2 21.5025 21.3 21.5559 21.35 21.5559H21.425C21.475 21.5559 21.525 21.5292 21.575 21.4758L21.725 21.3957C21.825 21.2888 21.925 21.2087 22.025 21.1553H22.325C22.375 21.1553 22.375 21.182 22.325 21.2354L22.025 21.3957L21.65 21.8765H22.175L22.7 21.9566C22.85 21.9032 22.975 21.8498 23.075 21.7963L23.45 21.5559C23.6 21.5025 23.75 21.5559 23.9 21.7162H23.975C24.025 21.7696 24 21.8498 23.9 21.9566L23 22.8381C22.75 23.0518 22.525 23.1853 22.325 23.2387L21.35 23.9599C21.3 24.0134 21.25 24.0134 21.2 23.9599L20.975 23.6394L20.825 23.3189L20.637 23.0379L20.412 22.7173L20.225 22.4769L20.075 22.2771L19.775 22.0367C19.675 22.0367 19.575 22.01 19.475 21.9566L18.5 21.1553C18.35 21.1553 18.175 21.0751 17.975 20.9149C17.225 20.2204 16.725 19.793 16.475 19.6327L16.025 19.3122L15.125 19.1519C14.825 19.0985 14.425 18.9382 13.925 18.6711L13.325 18.3506C12.925 18.1369 12.65 18.0301 12.5 18.0301L12.2 17.8698C12 17.8164 11.85 17.7629 11.75 17.7095L11.6 17.5493C11.5 17.5493 11.4 17.576 11.3 17.6294L9.8 18.4307L7.925 19.3122C7.425 19.7396 6.95 20.0868 6.5 20.3539L5.675 20.7546L4.4 21.7162C4.3 21.823 4.2 21.823 4.1 21.7162L3.95 21.8765C3.8 21.9299 3.7 21.9566 3.65 21.9566L3.35 22.1169V22.2771H3.2L3.05 22.5175C2.95 22.7312 2.85 22.8509 2.75 22.8776C2.65 22.9043 2.588 22.9449 2.563 22.9983C2.54399 23.0422 2.51868 23.0825 2.488 23.118L2.338 23.2783L2.113 23.4385L1.775 23.399L1.325 23.4791L1.025 23.5593C0.775 23.6127 0.575 23.5721 0.425 23.4385C0.275 23.305 0.15 23.1052 0.05 22.8381C-0.05 22.6778 0 22.5442 0.2 22.4374L0.275 22.3573C0.325 22.3038 0.4 22.2771 0.5 22.2771H0.95L1.55 22.0367L1.85 21.9566C1.85 21.8498 1.875 21.7696 1.925 21.7162C1.975 21.6628 2.05 21.6361 2.15 21.6361V21.5559C2.10181 21.4569 2.07612 21.347 2.075 21.2354C2.025 21.1285 2.012 21.0484 2.038 20.995C2.063 20.9416 2.088 20.9149 2.113 20.9149H2.15L2.225 21.1553C2.275 21.4224 2.35 21.5025 2.45 21.3957L2.525 21.2354C2.575 21.1285 2.65 21.0751 2.75 21.0751L2.9 21.2354L3.05 21.0751L2.975 20.995C2.975 20.9416 3 20.9149 3.05 20.9149L3.35 20.5943C3.6 20.2738 3.9 19.98 4.25 19.7129C4.95 19.1252 5.7 18.6711 6.5 18.3506C6.75 18.0835 7.025 17.9499 7.325 17.9499C7.525 17.576 7.825 17.1753 8.225 16.7479C8.575 16.4808 8.825 16.2938 8.975 16.187C9.075 15.9733 9.2 15.8664 9.35 15.8664H9.425L9.575 15.7062C9.675 15.6528 9.75 15.5993 9.8 15.5459V15.1452C9.8 14.8781 9.825 14.6644 9.875 14.5042C9.925 14.3439 10.05 14.2638 10.25 14.2638L10.55 13.9432C10.45 13.7296 10.4 13.4891 10.4 13.222H10.325C10.225 13.0618 10.175 12.9015 10.175 12.7412C10.025 12.4741 9.925 12.2604 9.875 12.1002H9.65C9.6 12.2604 9.475 12.3673 9.275 12.4207L9.2 12.581C9 12.9549 8.825 13.2349 8.675 13.4218C8.525 13.6088 8.25 13.8364 7.85 14.1035C7.6 14.3706 7.425 14.6644 7.325 14.985C7.275 15.1452 7.275 15.3055 7.325 15.4658L7.25 15.626H7.325C7.325 15.7329 7.35 15.7863 7.4 15.7863H7.475C7.575 15.8397 7.625 15.906 7.625 15.9861C7.625 16.0662 7.55 16.093 7.4 16.0662C7.27481 16.0515 7.15702 15.9955 7.063 15.906C6.988 15.8258 6.925 15.7863 6.875 15.7863L6.65 16.0267C6.55 16.187 6.45 16.2532 6.35 16.2265C6.25 16.1998 6.225 16.1603 6.275 16.1068L6.35 16.0267C6.4 15.9199 6.4 15.8664 6.35 15.8664L5.75 16.0267C5.7 16.0801 5.638 16.0801 5.563 16.0267C5.488 15.9733 5.5 15.9199 5.6 15.8664L5.975 15.7062C5.975 15.6528 5.95 15.626 5.9 15.626C5.7 15.7329 5.5 15.7596 5.3 15.7062L4.925 15.626L4.85 15.5459C4.85 15.4925 4.875 15.4658 4.925 15.4658C5.125 15.5192 5.375 15.4925 5.675 15.3856L6.2 15.1452L6.8 14.424L6.875 14.2638C7.075 13.8364 7.288 13.4485 7.513 13.1013C7.71106 12.7857 7.95089 12.5025 8.225 12.2604L8.3 11.9399C8.4 11.7262 8.5 11.5392 8.6 11.379C8.7 11.2187 8.825 11.005 8.975 10.7379L9.2 10.4174C9.4 10.0968 9.625 9.93656 9.875 9.93656L10.1 9.69616C10.15 9.64274 10.175 9.56261 10.175 9.45576L10.325 9.29549L10.25 9.21536C9.95 8.94825 9.8 8.70785 9.8 8.49416C9.75 8.1202 9.863 7.79967 10.138 7.53255C10.413 7.26544 10.688 7.14471 10.963 7.17142C11.238 7.19813 11.45 7.29215 11.6 7.45242L11.75 7.61269C11.8 7.61269 11.825 7.6394 11.825 7.69282L12.125 7.85309V8.09349C12.225 8.20033 12.275 8.28047 12.275 8.33389C12.375 8.17362 12.525 7.98664 12.725 7.77295L13.1 6.49082C13.1 6.27713 13.15 6.06344 13.25 5.84975L13.4 5.60935V5.44908L13.625 4.48748H13.775L14 3.52588C14.0503 3.34275 14.0503 3.14807 14 2.96494L13.7 2.16361L13.55 1.52254Z" fill="#0A0A0A"/>
</svg>
