<svg width="24" height="24" viewBox="0 0 24 24" fill="none" xmlns="http://www.w3.org/2000/svg">
<path d="M12.1689 10.2388L13.2799 8.22492L17.0539 7.97331L17.1859 7.72795L13.6979 7.47635L14.5179 6.00624H20.9879C22.9779 6.00624 24.4479 6.74961 23.8749 8.91735C23.7049 9.58066 22.8959 11.239 20.5189 11.9314C21.0259 11.9938 22.2789 12.5718 22.0589 14.07C21.6749 16.7295 18.3689 17.9938 16.5259 17.9938L8.88496 18L8.50496 16.4613L12.5099 16.1702L12.6469 15.9238L8.30096 15.6493L7.83397 13.8246L14.0119 13.4472L14.1489 13.2071L3.05299 12.4866L3.58698 11.5249L15.5349 10.7191L15.6729 10.4789L12.1689 10.2388ZM17.1689 10.6391L18.2689 10.6328C19.0069 10.6276 19.7709 10.2793 20.0519 9.57442C20.3109 8.91735 19.9639 8.35696 19.5019 8.36216H18.4349L17.1689 10.6391ZM15.8989 12.9212L14.5729 15.3176H15.8379C16.4269 15.3176 17.4779 15.014 17.8019 14.1449C18.1039 13.3329 17.5489 12.9212 17.1639 12.9212H15.8979H15.8989ZM6.25997 16.6214L5.48998 17.9886L0 17.999L0.533998 17.0393L6.25997 16.6214ZM6.64497 6L11.062 6.00624L11.398 7.30376L6.12197 6.96067L6.64497 6ZM11.645 8.33408L12.1289 10.2388L4.58698 9.72414L5.11498 8.76763L11.645 8.33408ZM7.80497 13.8246L6.84797 15.5516L1.52799 15.2376L2.06199 14.2769L7.80497 13.8246Z" fill="#0A0A0A"/>
</svg>
