<svg width="24" height="24" viewBox="0 0 24 24" fill="none" xmlns="http://www.w3.org/2000/svg">
<path d="M24 8L6.44186 15.1192C4.98585 15.7057 3.76284 16 2.77384 16C1.65383 16 0.84082 15.6267 0.336816 14.8792C0.019814 14.3992 -0.0731867 13.7907 0.0568143 13.0527C0.186815 12.3147 0.532818 11.5291 1.09282 10.693C1.55983 10.0169 2.32483 9.12844 3.38984 8.02666C3.0286 8.56819 2.76371 9.16277 2.60583 9.78645C2.32583 10.9244 2.57783 11.7596 3.36184 12.2928C3.73484 12.5414 4.24785 12.6661 4.90185 12.6661C5.42386 12.6661 6.01186 12.5861 6.66587 12.4261L24 8Z" fill="#0A0A0A"/>
</svg>
