<svg width="24" height="24" viewBox="0 0 24 24" fill="none" xmlns="http://www.w3.org/2000/svg">
<path d="M14.991 11.9583C17.744 10.8125 19.458 10.1542 24 9C21.533 9.16979 16.078 9.55937 12.318 10.324L14.991 11.9594M6.431 15.7625H10.031C10.744 14.6375 11.453 14.0896 12.279 13.4802C11.6517 13.2275 11.0209 12.9841 10.387 12.75C8.09 13.8062 6.812 15.224 6.434 15.7625M7.143 11.6708C3.933 12.8656 2.149 14.1635 0.944 15.7625H4.919C5.306 15.201 6.781 13.5823 9.552 12.4563C8.75432 12.176 7.95179 11.9141 7.143 11.6708ZM8.79 9.15417H0C8.862 10.8208 13.133 12.9667 20 16C19.413 15.5427 9.949 9.73646 8.791 9.15417" fill="#0A0A0A"/>
</svg>
