<svg width="69" height="29" viewBox="0 0 69 29" fill="none" xmlns="http://www.w3.org/2000/svg">
<path d="M0.151989 22V0.181818H4.1044V18.6868H13.7138V22H0.151989ZM24.1115 22.3196C22.5135 22.3196 21.1286 21.968 19.9567 21.2649C18.7848 20.5618 17.8757 19.5781 17.2294 18.3139C16.5902 17.0497 16.2706 15.5724 16.2706 13.8821C16.2706 12.1918 16.5902 10.7109 17.2294 9.43963C17.8757 8.16832 18.7848 7.18111 19.9567 6.47798C21.1286 5.77486 22.5135 5.4233 24.1115 5.4233C25.7095 5.4233 27.0945 5.77486 28.2663 6.47798C29.4382 7.18111 30.3438 8.16832 30.983 9.43963C31.6293 10.7109 31.9524 12.1918 31.9524 13.8821C31.9524 15.5724 31.6293 17.0497 30.983 18.3139C30.3438 19.5781 29.4382 20.5618 28.2663 21.2649C27.0945 21.968 25.7095 22.3196 24.1115 22.3196ZM24.1328 19.2301C24.9993 19.2301 25.7237 18.9922 26.3061 18.5163C26.8885 18.0334 27.3217 17.3871 27.6058 16.5774C27.897 15.7678 28.0426 14.8658 28.0426 13.8714C28.0426 12.87 27.897 11.9645 27.6058 11.1548C27.3217 10.3381 26.8885 9.68821 26.3061 9.20526C25.7237 8.7223 24.9993 8.48082 24.1328 8.48082C23.245 8.48082 22.5064 8.7223 21.9169 9.20526C21.3345 9.68821 20.8977 10.3381 20.6065 11.1548C20.3224 11.9645 20.1804 12.87 20.1804 13.8714C20.1804 14.8658 20.3224 15.7678 20.6065 16.5774C20.8977 17.3871 21.3345 18.0334 21.9169 18.5163C22.5064 18.9922 23.245 19.2301 24.1328 19.2301ZM42.3422 28.4773C40.9572 28.4773 39.7676 28.2891 38.7733 27.9126C37.7789 27.5433 36.9799 27.0462 36.3762 26.4212C35.7725 25.7962 35.3535 25.1037 35.1191 24.3438L38.5922 23.5021C38.7484 23.8217 38.9757 24.1378 39.274 24.4503C39.5723 24.7699 39.9735 25.0327 40.4778 25.2386C40.9892 25.4517 41.6319 25.5582 42.4061 25.5582C43.4998 25.5582 44.4054 25.2919 45.1227 24.7592C45.84 24.2337 46.1987 23.3672 46.1987 22.1598V19.0597H46.0069C45.8081 19.4574 45.5169 19.8658 45.1333 20.2848C44.7569 20.7038 44.2562 21.0554 43.6312 21.3395C43.0133 21.6236 42.2356 21.7656 41.2981 21.7656C40.041 21.7656 38.9011 21.4709 37.8784 20.8814C36.8627 20.2848 36.0531 19.397 35.4494 18.218C34.8528 17.032 34.5545 15.5476 34.5545 13.7649C34.5545 11.968 34.8528 10.4517 35.4494 9.21591C36.0531 7.97301 36.8663 7.03196 37.889 6.39276C38.9118 5.74645 40.0517 5.4233 41.3088 5.4233C42.2676 5.4233 43.0559 5.58665 43.6738 5.91335C44.2988 6.23295 44.796 6.62003 45.1653 7.07457C45.5346 7.52202 45.8152 7.9446 46.0069 8.34233H46.22V5.63636H50.0233V22.2663C50.0233 23.6655 49.6895 24.8232 49.0218 25.7393C48.3542 26.6555 47.4416 27.3409 46.2839 27.7955C45.1262 28.25 43.8123 28.4773 42.3422 28.4773ZM42.3741 18.7401C43.1909 18.7401 43.8869 18.5412 44.4622 18.1435C45.0375 17.7457 45.4743 17.174 45.7726 16.4283C46.0708 15.6825 46.22 14.7876 46.22 13.7436C46.22 12.7138 46.0708 11.8118 45.7726 11.0376C45.4814 10.2635 45.0481 9.66335 44.4728 9.23722C43.9047 8.80398 43.2051 8.58736 42.3741 8.58736C41.5147 8.58736 40.7974 8.81108 40.2221 9.25852C39.6468 9.70597 39.2136 10.3203 38.9224 11.1016C38.6312 11.8757 38.4856 12.7564 38.4856 13.7436C38.4856 14.745 38.6312 15.6222 38.9224 16.375C39.2207 17.1207 39.6575 17.7031 40.2328 18.1222C40.8152 18.5341 41.5289 18.7401 42.3741 18.7401ZM61.1135 22.3196C59.5154 22.3196 58.1305 21.968 56.9586 21.2649C55.7868 20.5618 54.8777 19.5781 54.2314 18.3139C53.5922 17.0497 53.2725 15.5724 53.2725 13.8821C53.2725 12.1918 53.5922 10.7109 54.2314 9.43963C54.8777 8.16832 55.7868 7.18111 56.9586 6.47798C58.1305 5.77486 59.5154 5.4233 61.1135 5.4233C62.7115 5.4233 64.0964 5.77486 65.2683 6.47798C66.4402 7.18111 67.3457 8.16832 67.9849 9.43963C68.6312 10.7109 68.9544 12.1918 68.9544 13.8821C68.9544 15.5724 68.6312 17.0497 67.9849 18.3139C67.3457 19.5781 66.4402 20.5618 65.2683 21.2649C64.0964 21.968 62.7115 22.3196 61.1135 22.3196ZM61.1348 19.2301C62.0012 19.2301 62.7257 18.9922 63.3081 18.5163C63.8904 18.0334 64.3237 17.3871 64.6078 16.5774C64.899 15.7678 65.0446 14.8658 65.0446 13.8714C65.0446 12.87 64.899 11.9645 64.6078 11.1548C64.3237 10.3381 63.8904 9.68821 63.3081 9.20526C62.7257 8.7223 62.0012 8.48082 61.1348 8.48082C60.247 8.48082 59.5083 8.7223 58.9189 9.20526C58.3365 9.68821 57.8997 10.3381 57.6085 11.1548C57.3244 11.9645 57.1824 12.87 57.1824 13.8714C57.1824 14.8658 57.3244 15.7678 57.6085 16.5774C57.8997 17.3871 58.3365 18.0334 58.9189 18.5163C59.5083 18.9922 60.247 19.2301 61.1348 19.2301Z" fill="black"/>
</svg>
